<svg width="58" height="32" viewBox="0 0 58 32" fill="none" xmlns="http://www.w3.org/2000/svg">
<path d="M46.4 31.5H51.2C54.73 31.5 57.6 28.6748 57.6 25.2V6.3C57.6 2.82516 54.73 0 51.2 0H46.4V31.5ZM41.6 0H16V31.5H41.6V0ZM6.4 0C2.87 0 0 2.82516 0 6.3V25.2C0 28.6748 2.87 31.5 6.4 31.5H11.2V0H6.4ZM21.6 11.025C21.6 9.71578 22.67 8.6625 24 8.6625C25.33 8.6625 26.4 9.71578 26.4 11.025C26.4 12.3342 25.33 13.3875 24 13.3875C22.67 13.3875 21.6 12.3342 21.6 11.025ZM33.6 8.6625C34.93 8.6625 36 9.71578 36 11.025C36 12.3342 34.93 13.3875 33.6 13.3875C32.27 13.3875 31.2 12.3342 31.2 11.025C31.2 9.71578 32.27 8.6625 33.6 8.6625ZM21.6 20.475C21.6 19.1658 22.67 18.1125 24 18.1125C25.33 18.1125 26.4 19.1658 26.4 20.475C26.4 21.7842 25.33 22.8375 24 22.8375C22.67 22.8375 21.6 21.7842 21.6 20.475ZM33.6 18.1125C34.93 18.1125 36 19.1658 36 20.475C36 21.7842 34.93 22.8375 33.6 22.8375C32.27 22.8375 31.2 21.7842 31.2 20.475C31.2 19.1658 32.27 18.1125 33.6 18.1125Z" fill="#597130"/>
</svg>
